# xmcd
#
# Track frame offsets:
# 150
# 16131
# 29386
# 45154
# 62679
# 78857
# 94292
# 106612
# 121260
# 142532
# 151707
# 165974
# 178588
#
# Disc length: 2597 seconds
#
#
# Revision: 0
# Processed by: cddbd v1.5.2PL0 Copyright (c) Steve Scherf et al.
# Submitted via: FreeRIP 2.951 
#
DISCID=800a230d
DTITLE=quarto de empregada - quarto de empregada
DYEAR=2006
DGENRE=Other
TTITLE0=nao me chame nao
TTITLE1=lapada na rachada
TTITLE2=os ninjas do arrocha
TTITLE3=sambando e quebrando
TTITLE4=bicho que mata homem
TTITLE5=vaza serrona
TTITLE6=pegou maderou e thau
TTITLE7=mecher com voce
TTITLE8=e voce qurer eu quero
TTITLE9=arrochar
TTITLE10=o sistema e bruto
TTITLE11=pega bicho
TTITLE12=bicho que mata homem
EXTD=
EXTT0=
EXTT1=
EXTT2=
EXTT3=
EXTT4=
EXTT5=
EXTT6=
EXTT7=
EXTT8=
EXTT9=
EXTT10=
EXTT11=
EXTT12=
PLAYORDER=
